<?xml version="1.0" encoding="UTF-8"?>
<svg id="Layer_2" data-name="Layer 2" xmlns="http://www.w3.org/2000/svg" xmlns:xlink="http://www.w3.org/1999/xlink" viewBox="0 0 512.01994 512.02002">
  <defs>
    <style>
      .cls-1 {
        fill: url(#linear-gradient-2);
      }

      .cls-2 {
        fill: url(#linear-gradient-4);
      }

      .cls-3 {
        fill: url(#radial-gradient);
      }

      .cls-4 {
        fill: url(#linear-gradient-3);
      }

      .cls-5 {
        fill: url(#linear-gradient);
      }

      .cls-6 {
        fill: #fff1eb;
      }
    </style>
    <radialGradient id="radial-gradient" cx="312.00993" cy="-6681.33171" fx="312.00993" fy="-6681.33171" r="200.83004" gradientTransform="translate(-56 3432.27101) scale(1 .45)" gradientUnits="userSpaceOnUse">
      <stop offset="0" stop-color="#fe7737" stop-opacity=".6"/>
      <stop offset="1" stop-color="#fe7837" stop-opacity="0"/>
    </radialGradient>
    <linearGradient id="linear-gradient" x1="423.82857" y1="-628.3284" x2="198.19122" y2="-853.96563" gradientTransform="translate(-56 1005.61499)" gradientUnits="userSpaceOnUse">
      <stop offset="0" stop-color="#fe7838"/>
      <stop offset=".54" stop-color="#fe7636"/>
      <stop offset="1" stop-color="#ffad8a"/>
    </linearGradient>
    <linearGradient id="linear-gradient-2" x1="337.95839" y1="-576.16664" x2="284.08161" y2="-630.04339" gradientTransform="translate(-56 1005.61499)" gradientUnits="userSpaceOnUse">
      <stop offset="0" stop-color="#34344f"/>
      <stop offset=".26" stop-color="#3b3b56"/>
      <stop offset=".66" stop-color="#4f4f6c"/>
      <stop offset="1" stop-color="#666684"/>
    </linearGradient>
    <linearGradient id="linear-gradient-3" x1="434.10251" y1="-794.91247" x2="330.59751" y2="-898.41748" xlink:href="#linear-gradient-2"/>
    <linearGradient id="linear-gradient-4" x1="419.02068" y1="-827.66661" x2="365.83117" y2="-880.85613" gradientTransform="translate(-56 1005.61499)" gradientUnits="userSpaceOnUse">
      <stop offset="0" stop-color="#bce4ed"/>
      <stop offset=".49" stop-color="#fff"/>
      <stop offset="1" stop-color="#fff"/>
    </linearGradient>
  </defs>
  <g id="Layer_2-2" data-name="Layer 2">
    <g>
      <path class="cls-6" d="M496.53001,129.86c-13.42999-49.48-64.88995-100.93-114.37-114.37C351.81999,7.93,311.18004.14,256.01003,0c-55.17001.14-95.81,7.92-126.14999,15.49C80.39,28.93,28.93001,80.38,15.49001,129.86,7.93001,160.19.14,200.84,0,256.01001c.14,55.16998,7.92,95.81,15.49001,126.14999,13.44,49.48001,64.88998,100.92999,114.37,114.37,30.34,7.57001,70.98001,15.35001,126.14999,15.49002,55.15997-.14001,95.81-7.92001,126.14996-15.48999,49.48004-13.44,100.92999-64.89001,114.37-114.37,7.57001-30.32999,15.35004-70.98001,15.48999-126.14999-.14001-55.17-7.91998-95.81-15.48999-126.14999v-.00005h.00006Z"/>
      <path class="cls-3" d="M444.68999,366.22c-10.54004-17.57999-50.90997-35.87-89.72003-40.63998-23.79999-2.69-55.67999-5.45999-98.95999-5.5-43.28.04999-75.17001,2.81-98.95999,5.5-38.81,4.78-79.17999,23.06-89.72,40.64001-5.94,10.78-12.04001,25.22-12.14999,44.83002.10999,19.60001,6.20999,34.04999,12.14999,44.83002,10.54001,17.57999,50.91,35.87,89.72,40.64001,23.79999,2.69,55.69,5.45999,98.95999,5.5,43.28-.04999,75.16-2.82001,98.95999-5.5,38.82001-4.76999,79.17999-23.06,89.71997-40.64001,5.92999-10.78,12.04004-25.22,12.14996-44.83002-.10999-19.60001-6.21997-34.04999-12.14996-44.83002v-.00003h.00006Z"/>
      <g>
        <path class="cls-5" d="M373.79997,362.10999c-79.19,2.42001-158.38,2.42001-237.57001,0-19.35999-.66-30.95999-23.67001-18.73999-38.13,8.54001-10.14999,17.20001-20.39999,25.94-30.70999,1.75-2.07001,2.69-4.70999,2.66-7.45001-.67999-29.89,3.07001-117.7,6.13-130.5,4.71002-22.02,25.28-43.79,47.07999-49,13.25998-2.96,31.23001-5.91,55.70999-5.96,24.48999.05,42.45001,3,55.70999,5.96,21.79004,5.21,42.37,26.97,47.08002,49,3.06,12.78999,6.81,100.60001,6.13,130.5-.03003,2.73999.90997,5.38,2.65997,7.45001,8.73999,10.32001,17.39996,20.56,25.94,30.70999,12.21997,14.45999.62,37.47-18.73999,38.13h.01001Z"/>
        <path class="cls-1" d="M283.34999,424.98999c4.82001-.94,9.48999-5.34,10.56-10.16.60999-2.92001,1.20001-6.89999,1.20999-12.32001,0-5.42999-.60999-9.39999-1.20999-12.32001-1.07001-4.81-5.73001-9.22-10.56-10.16-2.94-.59-22.91-1.31-28.32999-1.25-5.42001-.06-25.39001.67001-28.32999,1.25-4.82001.94-9.49002,5.34-10.56,10.16-.60999,2.92001-1.20001,6.89999-1.21002,12.32001,0,5.42999.60999,9.39999,1.21002,12.32001,1.07001,4.81,5.73001,9.22,10.56,10.16,2.94.59,22.91,1.31,28.32999,1.25,5.42001.06,25.39001-.67001,28.32999-1.25Z"/>
        <path class="cls-4" d="M326.35002,85.76c-40.42001,0-73.19,32.77-73.19,73.19001s32.76999,73.19,73.19,73.19,73.19-32.77,73.19-73.19-32.77002-73.19-73.19-73.19001Z"/>
        <path class="cls-2" d="M359.24998,181.45c-2.10004,3.08-5.51001,4.73-8.97998,4.73-2.10999,0-4.25-.61-6.12-1.89999l-23.92999-16.36c-2.95996-2.02-4.72998-5.38-4.72998-8.97v-35.35c0-6,4.85999-10.86,10.85999-10.86s10.85999,4.86,10.85999,10.86v29.62l19.20001,13.13c4.95001,3.39,6.21997,10.14999,2.84003,15.10001v-.00002h-.00006Z"/>
      </g>
    </g>
  </g>
</svg>