<svg width="200" height="200" viewBox="0 0 200 200" fill="none" xmlns="http://www.w3.org/2000/svg">
<g clip-path="url(#clip0_2047_1142)">
<path opacity="0.2" d="M100 200C155.228 200 200 155.228 200 100C200 44.7715 155.228 0 100 0C44.7715 0 0 44.7715 0 100C0 155.228 44.7715 200 100 200Z" fill="#FE7838"/>
<path d="M100 176.923C142.484 176.923 176.923 142.483 176.923 100C176.923 57.5165 142.484 23.0769 100 23.0769C57.5168 23.0769 23.0771 57.5165 23.0771 100C23.0771 142.483 57.5168 176.923 100 176.923Z" fill="#FE7838"/>
<path d="M63.5381 101.814L86.6368 124.912L136.461 75.0879" stroke="white" stroke-width="15" stroke-miterlimit="10"/>
</g>
<defs>
<clipPath id="clip0_2047_1142">
<rect width="200" height="200" fill="white"/>
</clipPath>
</defs>
</svg>
