<?xml version="1.0" encoding="UTF-8"?>
<svg id="Layer_2" data-name="Layer 2" xmlns="http://www.w3.org/2000/svg" viewBox="0 0 50 50">
  <defs>
    <style>
      .cls-1, .cls-2 {
        fill: none;
      }

      .cls-2 {
        stroke: #fff;
        stroke-linecap: round;
        stroke-linejoin: round;
        stroke-width: 2px;
      }
    </style>
  </defs>
  <g id="_Ñëîé_1" data-name="Ñëîé 1">
    <g>
      <g>
        <line class="cls-2" x1="38.35256" y1="14.86214" x2="45" y2="14.86214"/>
        <line class="cls-2" x1="5" y1="14.86214" x2="24.81472" y2="14.86214"/>
        <line class="cls-2" x1="25.16939" y1="35.13997" x2="45" y2="35.13997"/>
        <line class="cls-2" x1="5" y1="35.13997" x2="11.63231" y2="35.13997"/>
        <path class="cls-2" d="M31.58268,8.09207c3.73865,0,6.76988,3.03142,6.76988,6.77007,0,3.7375-3.03123,6.76796-6.76988,6.76796-3.73845,0-6.76796-3.03047-6.76796-6.76796,0-3.73865,3.02952-6.77007,6.76796-6.77007Z"/>
        <path class="cls-2" d="M18.3995,28.37086c3.73846,0,6.76989,3.03047,6.76989,6.76911,0,3.73673-3.03143,6.76796-6.76989,6.76796-3.73865,0-6.76719-3.03123-6.76719-6.76796,0-3.73865,3.02854-6.76911,6.76719-6.76911Z"/>
      </g>
      <rect class="cls-1" width="50" height="50"/>
    </g>
  </g>
</svg>