<?xml version="1.0" encoding="UTF-8"?>
<svg id="Layer_2" data-name="Layer 2" xmlns="http://www.w3.org/2000/svg" xmlns:xlink="http://www.w3.org/1999/xlink" viewBox="0 0 929.12415 829.44322">
  <defs>
    <style>
      .cls-1 {
        fill: #34344f;
      }

      .cls-2 {
        fill: url(#linear-gradient-2);
      }

      .cls-3 {
        fill: url(#linear-gradient-4);
      }

      .cls-4 {
        fill: url(#radial-gradient);
      }

      .cls-5 {
        fill: url(#linear-gradient-3);
      }

      .cls-6 {
        fill: #fe7838;
      }

      .cls-7 {
        fill: url(#linear-gradient);
      }

      .cls-8 {
        fill: #fff1eb;
      }
    </style>
    <radialGradient id="radial-gradient" cx="521.90284" cy="6979.66521" fx="521.90284" fy="6979.66521" r="200.83" gradientTransform="translate(-56 3566.52093) scale(1 -.45)" gradientUnits="userSpaceOnUse">
      <stop offset="0" stop-color="#fe7737" stop-opacity=".6"/>
      <stop offset="1" stop-color="#fe7837" stop-opacity="0"/>
    </radialGradient>
    <linearGradient id="linear-gradient" x1="633.72139" y1="1128.32831" x2="408.08407" y2="1353.96563" gradientTransform="translate(-56 1505.61496) scale(1 -1)" gradientUnits="userSpaceOnUse">
      <stop offset="0" stop-color="#fe7838"/>
      <stop offset=".54" stop-color="#fe7636"/>
      <stop offset="1" stop-color="#ffad8a"/>
    </linearGradient>
    <linearGradient id="linear-gradient-2" x1="547.85122" y1="1076.16659" x2="493.97445" y2="1130.04336" gradientTransform="translate(-56 1505.61496) scale(1 -1)" gradientUnits="userSpaceOnUse">
      <stop offset="0" stop-color="#34344f"/>
      <stop offset=".26" stop-color="#3b3b56"/>
      <stop offset=".66" stop-color="#4f4f6c"/>
      <stop offset="1" stop-color="#666684"/>
    </linearGradient>
    <linearGradient id="linear-gradient-3" x1="643.99534" y1="1294.91244" x2="540.49033" y2="1398.41745" xlink:href="#linear-gradient-2"/>
    <linearGradient id="linear-gradient-4" x1="628.91351" y1="1327.66655" x2="575.72396" y2="1380.8561" gradientTransform="translate(-56 1505.61496) scale(1 -1)" gradientUnits="userSpaceOnUse">
      <stop offset="0" stop-color="#bce4ed"/>
      <stop offset=".49" stop-color="#fff"/>
      <stop offset="1" stop-color="#fff"/>
    </linearGradient>
  </defs>
  <g id="_Ñëîé_1" data-name="Ñëîé 1">
    <g>
      <path class="cls-8" d="M706.42283,129.86c-13.42999-49.48-64.88998-100.93-114.37-114.37-30.34-7.56-70.98001-15.35-126.14999-15.49-55.17.14-95.81,7.92-126.14999,15.49-49.47002,13.44-100.93002,64.89-114.37002,114.37-7.56,30.33-15.35,70.98-15.49,126.15001.14,55.16998,7.92,95.81,15.49,126.14999,13.44,49.48001,64.89,100.92999,114.37,114.37,30.34,7.57001,70.98,15.35001,126.15001,15.49002,55.16-.14001,95.81-7.92001,126.14999-15.48999,49.48001-13.44,100.92999-64.89001,114.37-114.37,7.57001-30.32999,15.35001-70.98001,15.49002-126.14999-.14001-55.17-7.92001-95.81-15.48999-126.14999l-.00003-.00005Z"/>
      <path class="cls-4" d="M654.58284,366.22c-10.54001-17.57999-50.91-35.87-89.72-40.63998-23.79999-2.69-55.67999-5.45999-98.95999-5.5-43.28.04999-75.17,2.81-98.95999,5.5-38.81,4.78-79.18,23.06-89.72,40.64001-5.94,10.78-12.04,25.22-12.15,44.83002.11,19.60001,6.21,34.04999,12.15,44.83002,10.54,17.57999,50.91,35.87,89.72,40.64001,23.8,2.69,55.69,5.45999,98.95999,5.5,43.28-.04999,75.16-2.82001,98.95999-5.5,38.82001-4.76999,79.17999-23.06,89.72-40.64001,5.92999-10.78,12.04001-25.22,12.14999-44.83002-.10999-19.60001-6.22-34.04999-12.14999-44.83002v-.00003Z"/>
      <g>
        <path class="cls-7" d="M583.69282,362.10999c-79.19,2.42001-158.38,2.42001-237.57001,0-19.36-.66-30.96-23.67001-18.74-38.13,8.54-10.14999,17.2-20.39999,25.93999-30.70999,1.75-2.07001,2.69-4.70999,2.66-7.45001-.67999-29.89,3.07001-117.7,6.13-130.5,4.71001-22.02,25.28-43.79,47.08-49,13.25999-2.96,31.23-5.91,55.70999-5.96,24.48999.05,42.45001,3,55.70999,5.96,21.79001,5.21,42.37,26.97,47.08002,49,3.06,12.78999,6.81,100.60001,6.13,130.5-.03,2.73999.91,5.38,2.66,7.45001,8.73999,10.32001,17.39999,20.56,25.94,30.70999,12.22,14.45999.62,37.47-18.73999,38.13h.00998Z"/>
        <path class="cls-2" d="M493.24284,424.98999c4.82001-.94,9.48999-5.34,10.56-10.16.60999-2.92001,1.20001-6.89999,1.20999-12.32001,0-5.42999-.60999-9.39999-1.20999-12.32001-1.07001-4.81-5.73001-9.22-10.56-10.16-2.94-.59-22.91-1.31-28.33-1.25-5.42-.06-25.39.67001-28.33,1.25-4.82001.94-9.49001,5.34-10.56,10.16-.61,2.92001-1.2,6.89999-1.21001,12.32001,0,5.42999.61,9.39999,1.21001,12.32001,1.07001,4.81,5.73,9.22,10.56,10.16,2.94.59,22.91,1.31,28.33,1.25,5.42.06,25.39-.67001,28.33-1.25Z"/>
        <path class="cls-5" d="M536.24284,85.76c-40.42001,0-73.19,32.77-73.19,73.19001s32.76999,73.19,73.19,73.19,73.19-32.77,73.19-73.19-32.76999-73.19-73.19-73.19001Z"/>
        <path class="cls-3" d="M569.14283,181.45c-2.10001,3.08-5.51001,4.73-8.98001,4.73-2.10999,0-4.25-.61-6.12-1.89999l-23.92999-16.36c-2.95999-2.02-4.73001-5.38-4.73001-8.97v-35.35c0-6,4.85999-10.86,10.85999-10.86s10.85999,4.86,10.85999,10.86v29.62l19.20001,13.13c4.95001,3.39,6.22,10.14999,2.84,15.10001l.00003-.00002Z"/>
      </g>
      <g>
        <path class="cls-1" d="M99.68237,802.20006h-54.07202l-8.66797,25.5918H0l52.4209-144.87988h40.86353l52.4209,144.87988h-37.35498l-8.66797-25.5918ZM90.60156,774.95787l-17.95508-53.04004-17.74878,53.04004h35.70386Z"/>
        <path class="cls-1" d="M196.88794,675.0692v152.72266h-35.29126v-152.72266h35.29126Z"/>
        <path class="cls-1" d="M222.16943,738.84166c4.46948-8.94238,10.55762-15.82031,18.26465-20.63867,7.70386-4.81445,16.3042-7.22266,25.79785-7.22266,8.11646,0,15.23682,1.65039,21.36035,4.95312,6.12061,3.30176,10.83521,7.63574,14.13721,13.00195v-16.30469h35.29126v115.16113h-35.29126v-16.30371c-3.44067,5.36523-8.2229,9.69922-14.34351,13.00195-6.12378,3.30176-13.2439,4.95312-21.3606,4.95312-9.35791,0-17.88745-2.44141-25.59131-7.32715-7.70703-4.88184-13.79517-11.83105-18.26465-20.84473-4.47266-9.00977-6.70752-19.43164-6.70752-31.2666,0-11.83105,2.23486-22.21777,6.70752-31.16309ZM294.40308,749.36705c-4.8855-5.08887-10.83521-7.63672-17.85205-7.63672s-12.96997,2.5127-17.85205,7.5332c-4.8855,5.02441-7.32666,11.93848-7.32666,20.74121,0,8.80664,2.44116,15.78809,7.32666,20.94824,4.88208,5.15918,10.83496,7.73926,17.85205,7.73926s12.96655-2.54492,17.85205-7.63672c4.88208-5.08789,7.32642-12.03711,7.32642-20.84375,0-8.80371-2.44434-15.75293-7.32642-20.84473Z"/>
        <path class="cls-1" d="M413.37866,716.86217c6.19141-3.64453,13.06982-5.46973,20.63818-5.46973v37.35547h-9.69995c-8.80664,0-15.41089,1.89258-19.8125,5.67578-4.40503,3.78516-6.60425,10.42188-6.60425,19.91504v53.45312h-35.29126v-115.16113h35.29126v19.19336c4.12769-6.32617,9.28711-11.31543,15.47852-14.96191Z"/>
        <path class="cls-6" d="M615.01233,682.91197v144.87988h-35.2915v-86.88672l-32.40186,86.88672h-28.48047l-32.60828-87.09277v87.09277h-35.29126v-144.87988h41.68909l40.65723,100.30176,40.24414-100.30176h41.48291Z"/>
        <path class="cls-6" d="M642.97668,695.19127c-3.92139-3.64355-5.88184-8.15137-5.88184-13.51758,0-5.50098,1.96045-10.07715,5.88184-13.72461,3.92139-3.64355,8.97754-5.46875,15.16895-5.46875,6.05273,0,11.0415,1.8252,14.96289,5.46875,3.92139,3.64746,5.88184,8.22363,5.88184,13.72461,0,5.36621-1.96045,9.87402-5.88184,13.51758-3.92139,3.64746-8.91016,5.46973-14.96289,5.46973-6.19141,0-11.24756-1.82227-15.16895-5.46973ZM675.68811,712.63072v115.16113h-35.29102v-115.16113h35.29102Z"/>
        <path class="cls-6" d="M721.29846,824.28306c-7.84277-3.4375-14.03418-8.15137-18.57471-14.13672-4.54004-5.98535-7.08789-12.69238-7.63574-20.12207h34.87842c.4126,3.99219,2.27002,7.22266,5.57227,9.69922,3.30176,2.47656,7.3584,3.71582,12.17627,3.71582,4.40186,0,7.80713-.8584,10.21582-2.58008,2.40576-1.71875,3.61182-3.9541,3.61182-6.70801,0-3.30176-1.72217-5.74316-5.15967-7.32617-3.44043-1.58008-9.01318-3.33398-16.7168-5.2627-8.25537-1.9248-15.13672-3.95312-20.63818-6.08789-5.50439-2.13184-10.25098-5.50195-14.24023-10.11328-3.99219-4.60742-5.98486-10.83496-5.98486-18.67773,0-6.60352,1.82178-12.62109,5.46875-18.05762,3.64404-5.43359,9.01025-9.73242,16.09814-12.89941,7.08447-3.16309,15.51074-4.74609,25.28125-4.74609,14.44678,0,25.83008,3.5791,34.15625,10.73145,8.32324,7.15527,13.10547,16.64941,14.34375,28.48047h-32.6084c-.55127-3.98926-2.30566-7.15234-5.2627-9.49316-2.96045-2.33789-6.84619-3.50879-11.66064-3.50879-4.12744,0-7.29443.79297-9.49365,2.37305-2.20215,1.58398-3.30176,3.75098-3.30176,6.50098,0,3.30273,1.75391,5.7793,5.2627,7.43066,3.5083,1.65039,8.97754,3.30176,16.40723,4.95312,8.5293,2.20215,15.47852,4.36914,20.84424,6.50098,5.36621,2.13477,10.07764,5.57227,14.13721,10.31836,4.05664,4.74707,6.15625,11.1123,6.29492,19.09082,0,6.74219-1.89307,12.76367-5.67578,18.05859-3.78564,5.29785-9.21924,9.46094-16.3042,12.48535-7.08789,3.02539-15.30762,4.54102-24.6626,4.54102-10.04492,0-18.98682-1.71875-26.8291-5.16016Z"/>
        <path class="cls-6" d="M838.41956,822.21959c-9.01318-4.81445-16.09766-11.69238-21.25732-20.63867-5.15967-8.94141-7.73926-19.39941-7.73926-31.36914,0-11.83203,2.61182-22.25391,7.84229-31.26758,5.22754-9.00977,12.38281-15.92285,21.46387-20.74121,9.08057-4.81445,19.26123-7.22266,30.54443-7.22266,11.27979,0,21.46338,2.4082,30.54443,7.22266,9.08057,4.81836,16.2334,11.73145,21.46387,20.74121,5.22705,9.01367,7.84229,19.43555,7.84229,31.26758,0,11.83398-2.65088,22.25684-7.9458,31.2666-5.29834,9.0127-12.52148,15.92676-21.66992,20.74121-9.15186,4.81738-19.36768,7.22363-30.64746,7.22363-11.28369,0-21.43164-2.40625-30.44141-7.22363ZM886.09338,791.46861c4.74707-4.95312,7.12012-12.03809,7.12012-21.25684,0-9.2168-2.30566-16.30469-6.91357-21.25781-4.61133-4.95312-10.28662-7.42969-17.02637-7.42969-6.88184,0-12.58936,2.44434-17.12988,7.32617-4.54004,4.88574-6.81055,12.00586-6.81055,21.36133,0,9.21875,2.23486,16.30371,6.70752,21.25684,4.46924,4.95312,10.07715,7.42969,16.82031,7.42969,6.73926,0,12.48584-2.47656,17.23242-7.42969Z"/>
      </g>
    </g>
  </g>
</svg>