<?xml version="1.0" encoding="UTF-8"?>
<svg id="Layer_2" data-name="Layer 2" xmlns="http://www.w3.org/2000/svg" viewBox="0 0 708.66258 708.66058">
  <defs>
    <style>
      .cls-1 {
        fill-rule: evenodd;
      }
    </style>
  </defs>
  <g id="Page_1" data-name="Page 1">
    <g id="Layer_1-2" data-name="Layer 1">
      <path class="cls-1" d="M510.23679,510.23578h28.3467v28.34671h-28.3467v-28.34671h0ZM311.81149,340.15719h28.3467v-56.69241h28.3462v-85.03909h-28.3462v56.6924h56.6929v-28.3466h-85.0396v28.3466h-28.3466v28.34669h28.3466v28.34671h-28.3466v28.3457h-28.3467v28.3462h56.6933v-28.3462h0ZM340.15819,340.15719v28.3462h28.3462v-28.3462h-28.3462ZM340.15819,368.50339h-28.3467v28.3467h28.3467v-28.3467h0ZM708.66258,368.50339h-56.69328v-28.3462h-28.34672v85.0395h56.6933v28.3457h28.3467v-28.3457h-28.3467v-28.3466h-28.34658v85.039h56.69328v28.34669h-85.04v85.0391h28.34672v28.3466h28.34658v-28.3466h-28.34658v-56.6924h28.34658v28.3467h28.3467v56.6923h-28.3467v28.3467h28.3467v56.6924h-28.3467v-28.3457h-85.039v28.3457h-56.6934v-28.3457h-28.3467v28.3457h-28.3466v-56.6924h-28.3457v-28.3467h28.3457v28.3467h28.3466v-28.3467h28.3467v-28.3466h-170.0791v28.3466h56.6934v28.3467h-28.3467v28.3467h-28.3467v28.3457h-28.3462v-28.3457h-28.3467v28.3457h-85.039v-56.6924h28.3457v-28.3467h28.3467v56.6934h28.3466v-56.6934h28.3467v-28.3466h-113.3857v-28.3457h.0957v-28.3467h28.3467v28.3467h28.25v-28.3467h28.3466v-56.6934h-56.6933v28.34669h-28.3457v-56.69339h85.039v-28.3457h-56.6933v-56.6933h-28.3457v28.3467h-28.3467v28.3466h-85.04v28.3457h-28.3457v28.3467H28.3467v-28.3467H0v-28.3457h28.3467v28.3457h28.3467v-28.3457h56.6924v-28.3466h-56.6924v-28.3467h-28.3467v28.3467H0v-28.3467h28.3467v-28.3462h28.3467v-28.3457h28.3467v-85.04H0v85.04h28.3467v-56.6934h85.0391v-28.3466h85.04v28.3466h28.3467v28.34669h28.3457v-28.34669h28.3467v-85.039h-28.3467v28.3466h-28.3457v-56.6933h56.6924v-28.3467h-56.6924V0h28.3457v56.6933h28.3467v28.3467h56.6933v-28.3467h28.3462v-28.3467h-28.3462v28.3467h-28.3467v-28.3467h28.3467V0h28.3462v28.3466h29.3145v28.3467h27.3789v-28.3467h28.3467V0h28.3457v28.3466h-28.3457v28.3467h28.3457v28.3467h-28.3457v85.0391h28.3457v28.3466h-28.3457v-28.3466h-28.3467v85.039h28.3467v-28.3466h28.3457v56.69329h-113.3858v56.69241h56.6934v28.3462h28.3467v56.6933h-28.3467v-28.3466h-28.3467v85.039h56.6934v-28.3467h56.6923v-28.3457h28.3467v28.3457h56.6934v-28.3457h-28.3467v-28.3466h-28.3467v-28.3467h28.3467v28.3467h28.3467v-56.6929h-28.3467v-56.69241h-28.3467v-56.69329h28.3467v28.3466h28.3467v-28.3466h28.3457v28.3466h85.04v-28.3466h-56.69328v113.3857h56.69328v28.3462h0ZM0,0h198.42579v198.42569H0V0h0ZM170.07909,28.3466H28.3467v141.7325h141.73239V28.3466h0ZM56.6934,56.6933h85.039v85.0391H56.6934V56.6933h0ZM56.6934,566.92919h85.039v85.039H56.6934v-85.039h0ZM170.07909,510.23578H0v198.4248h198.42579v-198.4248h-28.3467ZM28.3467,538.58249h141.73239v141.73239H28.3467v-141.73239h0ZM623.62258,595.27488h-56.6924v28.3466h-28.3467v56.6934h28.3467v-28.3467h28.3467v-28.3467h28.3457v-28.3466h0ZM651.9693,623.62148h-28.34672v28.3467h28.34672v-28.3467h0ZM368.50439,595.27488v-28.3457h-56.6929v-28.3467h28.3467v56.6924h28.3462ZM425.19779,708.66058h28.3467v-28.3457h-28.3467v28.3457h0ZM368.50439,680.31488v-28.3467h-28.3462v28.3467h28.3462ZM368.50439,566.92919h28.3467v-28.3467h28.3467v28.3467h28.3467v-56.69341h-85.0401v-28.34669h-28.3462v56.6934h28.3462v28.3467h0ZM340.15819,481.88909v-28.3467h-28.3467v28.3467h28.3467ZM368.50439,453.54239v-56.6923h-28.3462v56.6923h28.3462ZM566.93018,566.92919v-85.0401h-85.04v85.0401h85.04ZM396.85109,396.85009v-28.3467h-28.3467v28.3467h28.3467ZM141.73239,453.54239h56.6934v28.3467h-56.6934v-28.3467h0ZM198.42579,396.85009v-28.3467h-28.3467v-28.3462h28.3467v28.3462h28.3467v-28.3462h28.3457v-28.3457h-28.3457v-28.34671h-28.3467v28.34671h-28.3467v-28.34671h28.3467v-28.34669h-85.04v28.34669h28.3466v28.34671h-28.3466v28.3457h28.3466v28.3462h-28.3466v28.3467h85.04ZM113.3858,368.50339v-28.3462h-56.6924v28.3462h56.6924ZM425.19779,340.15719v-28.3457h28.3467v-56.6934h56.6923v28.34669h28.3467v56.69241h-28.3467v-28.3457h-56.6923v28.3457h28.3457v28.3462h28.3466v28.3467h-28.3466v-28.3467h-28.3457v-28.3462h-28.3467ZM595.27688,340.15719h28.3457v-28.3457h56.6933v-28.34671h-56.6933v-28.34669h-28.3457v85.0391h0ZM396.85109,198.42569v-28.3466h-28.3467v28.3466h28.3467ZM425.19779,170.0791v-85.0391h-56.6934v56.6924h28.3467v28.3467h28.3467ZM340.15819,198.42569v-28.3466h28.3462v-28.3467h-28.3462v-28.3467h-28.3467v85.04h28.3467ZM538.58348,28.3466v141.7325h141.7324V28.3466h-141.7324ZM510.23679,170.0791V0h198.42579v198.42569h-198.42579v-28.3466h0ZM566.93018,56.6933h85.03912v85.0391h-85.03912V56.6933h0ZM453.54449,85.04v-28.3467h-28.3467v28.3467h28.3467Z"/>
    </g>
  </g>
</svg>