<?xml version="1.0" encoding="UTF-8"?>
<svg id="Layer_2" data-name="Layer 2" xmlns="http://www.w3.org/2000/svg" viewBox="0 0 1015.7427 1015.8028">
  <defs>
    <style>
      .cls-1 {
        fill: #34344f;
      }

      .cls-2 {
        fill: #fff;
      }
    </style>
  </defs>
  <g id="_Ñëîé_1" data-name="Ñëîé 1">
    <g>
      <path class="cls-1" d="M1015.7427,507.8713c0,68.5778-13.403,135.1116-39.9078,197.7395-25.5439,60.4633-62.2073,114.7968-108.8474,161.4368-46.58,46.64-100.9134,83.2427-161.3775,108.7866-62.627,26.5056-129.1616,39.9686-197.7386,39.9686-68.5185,0-135.0516-13.463-197.6785-39.9686-60.4642-25.5439-114.7976-62.1466-161.4377-108.7866-46.6402-46.64-83.2434-100.9735-108.8473-161.4368C13.463,642.9829,0,576.4491,0,507.8713c0-68.5176,13.463-135.0523,39.9079-197.6793,25.6039-60.464,62.2071-114.7966,108.8473-161.4368,46.6401-46.64,100.9735-83.2427,161.4377-108.7866C372.8198,13.463,439.3529,0,507.8714,0c68.577,0,135.1116,13.463,197.7386,39.9686,60.4641,25.5439,114.7975,62.1466,161.3775,108.7866,46.6401,46.6402,83.3035,100.9728,108.8474,161.4368,26.5048,62.627,39.9078,129.1617,39.9078,197.6793Z"/>
      <g>
        <circle class="cls-2" cx="507.8884" cy="382.64007" r="125.17535" transform="translate(-121.81032 471.20401) rotate(-45)"/>
        <path class="cls-2" d="M437.0341,534.1742h141.70894c99.06668,0,179.49626,80.42958,179.49626,179.49626v.00024c0,31.28442-25.39898,56.6834-56.6834,56.6834h-387.33514c-31.28429,0-56.68316-25.39887-56.68316-56.68316v-.00024c0-99.06682,80.42968-179.4965,179.4965-179.4965Z"/>
      </g>
    </g>
  </g>
</svg>